# xmcd CD database file
# Copyright (C) 1993-2000  Ti Kan
#
# Track frame offsets:
#	900
#	25037
#	47175
#	61325
#	77575
#	87450
#	102512
#	120662
#	144825
#
# Disc length: 2290 seconds
#
# Revision: 1
# Processed by: cddbd v1.5.2PL0 Copyright (c) Steve Scherf et al.
# Submitted via: xmcd 2.6 PL0
#
DISCID=7008e609
DTITLE=Amazing Rhythm Aces - Burning The Ballroom Down
DYEAR=1978
DGENRE=Country Rock
TTITLE0=Burning The Ballroom Down
TTITLE1=A Jackass Gets His Oats
TTITLE2=Ashes Of Love
TTITLE3=All That I Had Left
TTITLE4=I Pity The Mother And The Father
TTITLE5=Della's Long Brown Hair
TTITLE6=Out Of Contro
TTITLE7=Red To Blue
TTITLE8=The Spirit Walk
EXTD=
EXTT0=
EXTT1=
EXTT2=
EXTT3=
EXTT4=
EXTT5=
EXTT6=
EXTT7=
EXTT8=
PLAYORDER=
